<svg id="ASTRON_logo_desktop" data-name="ASTRON_logo_desktop" xmlns="http://www.w3.org/2000/svg" aria-labelledby="ASTRONlogoDesktopTitleID" role="img" viewBox="-0.03 -0.05 89.08 24.25"> 	<title id="ASTRONlogoDesktopTitleID">ASTRON logo</title> 	<defs>         <style>.cls-1{fill:#3a5896;}.cls-2{fill:#00adee;}</style>     </defs>     <polygon class="cls-1" points="35.79 6.8 35.79 19.66 32.42 19.66 32.42 6.8 28.1 6.8 28.1 4.07 40.09 4.07 40.09 6.8 35.79 6.8"/>     <path class="cls-1" d="M703.86,379c-2.58,0-4.58,2-4.58,5.41,0,3.12,2,5.14,4.53,5.14s4.61-2,4.61-5.42c0-3.11-2-5.13-4.56-5.13m-.05,13.34a7.62,7.62,0,0,1-8-7.88,8,8,0,0,1,8.07-8.25c4.71,0,8,3.22,8,7.87a8,8,0,0,1-8.1,8.26" transform="translate(-638.48 -372.41)"/>     <polygon class="cls-1" points="85.77 19.66 79.39 9.19 79.39 19.66 76.07 19.66 76.07 4.07 79.52 4.07 85.74 14.5 85.74 4.07 89.03 4.07 89.03 19.66 85.77 19.66"/>     <path class="cls-1" d="M690.43,385.09a4.39,4.39,0,0,0,2.79-4.16c0-2.85-2.17-4.48-5.51-4.48a6.57,6.57,0,0,0-1.28.09,11.1,11.1,0,0,0-.83,2.27,13.81,13.81,0,0,1,1.47-.07c1.82,0,2.86.82,2.86,2.27a2.34,2.34,0,0,1-2.61,2.58h-2.47a6.62,6.62,0,0,0,0,2.51h2.67l3.77,6h3.85Z" transform="translate(-638.48 -372.41)"/>     <path class="cls-2" d="M684.66,396.59c-2.66-2.47-4.84-7.72-4.84-12s2-9.51,4.84-12.22h2.26a19.84,19.84,0,0,0-4.15,12,20.5,20.5,0,0,0,4.15,12.2Z" transform="translate(-638.48 -372.41)"/>     <path class="cls-1" d="M661.57,383c-2.31-1.19-3.27-1.65-3.27-2.59s.86-1.39,2-1.39a8.54,8.54,0,0,1,4.48,1.22V377a12.25,12.25,0,0,0-4.53-.71c-3.06,0-5.34,1.87-5.34,4.38s1.47,3.31,3.62,4.4,3.57,1.77,3.57,2.86-1,1.7-2.53,1.7a7.7,7.7,0,0,1-4.86-1.65l1.47,4.09a13.89,13.89,0,0,0,3.06.32c4.23,0,6.38-1.83,6.38-4.74,0-2.35-1.72-3.47-4-4.6" transform="translate(-638.48 -372.41)"/>     <path class="cls-1" d="M646.08,379.74l-1.93,5.9H648Zm4,12.33-1.31-4h-5.37l-1.34,4h-3.6l5.67-15.59h4l5.62,15.59Z" transform="translate(-638.48 -372.41)"/> </svg>