<?xml version="1.0" encoding="utf-8"?>
<!-- Generator: Adobe Illustrator 28.0.0, SVG Export Plug-In . SVG Version: 6.00 Build 0)  -->
<svg version="1.1" id="logomark" xmlns="http://www.w3.org/2000/svg" xmlns:xlink="http://www.w3.org/1999/xlink" x="0px" y="0px"
	 viewBox="0 0 400 300" style="enable-background:new 0 0 400 300;" xml:space="preserve">
<style type="text/css">
	.st0{fill:#6B42FC;}
	.st1{fill:#6100FF;}
	.st2{fill:#A9B1FF;}
</style>
<path id="secondary-tower" class="st0" d="M151.062,247.009l13.744-158.862h-13.993c-1.998,0-2.637,0.371-3.407,2.96l-4.595,20.082
	c-0.518,2.479-0.901,2.959-3.406,2.959h-6.123c-2.113,0-2.837-0.657-3.434-3.09l-3.891-19.82c-0.51-2.51-1.01-3.09-3.434-3.09
	h-15.395c-0.004,0-0.007,0-0.011,0c-2.268,0-2.974,0.584-3.446,3.216l-3.248,19.568c-0.43,2.498-0.884,3.216-3.656,3.216h-7.025
	c-2.168,0-3.007-0.544-3.441-3.118l-3.746-19.763c-0.487-2.454-1.303-3.119-3.441-3.119h-11.92
	c-0.076-0.001-0.151-0.002-0.224-0.002c-2.234,0-3.072,0.693-3.284,3.664l-5.221,162.089c9.098-1.079,19.089-2.094,29.783-3.016
	C107.324,249.238,128.635,247.89,151.062,247.009z M100.523,134.748c0.978-4.978,3.416-8.786,9.18-8.786s8.711,3.734,9.407,8.786
	l0.82,43.399H99.247C98.317,167.808,99.545,139.726,100.523,134.748z"/>
<path id="main-tower" class="st1" d="M195.346,244.387c1.966-0.016,3.933-0.028,5.903-0.036l11.736-76.204h44.735l11.91,77.332
	c1.979,0.107,3.949,0.219,5.915,0.337c2.342,0.141,4.675,0.29,6.997,0.448c10.676,0.727,21.119,1.634,31.212,2.742
	c1.973,0.217,3.933,0.441,5.878,0.673L304.575,81.584c-0.322-4.628-0.145-6.437,2.445-6.437l12.804-0.001
	c3.656-0.001,6.436-3.262,5.833-6.842l-1.648-56.731c-0.514-2.772-3.132-4.826-6.245-4.901l-9.618-0.381
	c-0.058-0.001-0.117-0.002-0.176-0.002c-3.235,0-5.991,2.153-6.441,5.062l-2.279,14.736c-0.448,2.902-3.198,5.061-6.445,5.061
	h-5.766c-3.292,0-6.065-2.218-6.461-5.167l-1.973-14.668c-0.397-2.949-3.17-5.166-6.461-5.166h-17.395
	c-3.433,0-6.275,2.405-6.495,5.497l-0.997,14.005c-0.219,3.091-3.062,5.498-6.494,5.498h-6.135c-3.343,0-6.142-2.285-6.476-5.287
	l-1.604-14.425c-0.334-3.002-3.133-5.287-6.476-5.287h-13.999c-3.421,0-6.27,2.367-6.552,5.444l-1.294,14.113
	c-0.428,3.891-3.054,5.384-6.426,5.443l-8.98,0.156c-3.775,0-5.818-0.705-6.62-4.997l-2.683-15.162
	c-0.761-4.297-2.068-4.998-6.492-4.998h-13.514c-4.293,0-6.498,1.138-6.514,5.129l-0.188,58.218
	c-0.484,3.514,2.262,6.645,5.833,6.653l13.737,0.045c4.021,0.008,4.023,2.886,3.924,5.133l-14.181,163.919
	c1.949-0.069,3.904-0.134,5.868-0.195C172.939,244.706,184.099,244.479,195.346,244.387z M218.755,90.203
	c1.279-9.637,8.176-14.052,16.715-14.052c8.538,0,15.671,4.662,16.95,14.299l5.197,40.697h-44.295L218.755,90.203z"/>
<path id="ground" class="st2" d="M387.47,269.717c-16.73-5.613-37.447-9.819-60.498-12.863c-1.964-0.259-3.95-0.511-5.947-0.753
	c-1.964-0.239-3.948-0.47-5.942-0.692c-12.268-1.371-25.093-2.443-38.236-3.253c-1.992-0.123-3.973-0.238-5.979-0.349
	c-1.979-0.109-3.983-0.214-5.974-0.311c-18.983-0.932-38.483-1.348-57.864-1.348c-0.121,0-0.229,0-0.351,0
	c-1.977,0.001-3.954,0.005-5.928,0.014c-1.974,0.009-3.963,0.023-5.932,0.04c-11.173,0.099-22.244,0.33-33.116,0.676
	c-1.97,0.063-3.94,0.129-5.896,0.199c-1.973,0.071-3.942,0.145-5.898,0.223c-34.874,1.387-66.983,3.909-91.987,6.906
	c-19.794,2.373-35.121,5.043-43.836,7.685c-15.318,4.644-11.991,27.226,4.015,27.257l367.789,0.706
	C397.52,293.853,400.022,273.928,387.47,269.717z"/>
</svg>
